<?xml version="1.0" encoding="UTF-8"?>
<!-- Generator: Adobe Illustrator 24.2.3, SVG Export Plug-In . SVG Version: 6.00 Build 0)  -->
<svg xmlns="http://www.w3.org/2000/svg" xmlns:xlink="http://www.w3.org/1999/xlink" version="1.1" x="0px" y="0px" viewBox="0 0 1040.5 752.36" style="enable-background:new 0 0 1040.5 752.36;" xml:space="preserve">
<style type="text/css">
	.st0{fill:#ECF0F2;}
	.st1{fill:#939598;}
	.st2{fill:#FFFFFF;stroke:#233949;stroke-width:3;stroke-miterlimit:10;}
	.st3{fill:#D5E1EB;fill-opacity:0.5;}
	.st4{fill:#724D3F;}
	.st5{fill:#F9A01B;}
	.st6{fill:#037C92;}
	.st7{fill:#233949;stroke:#233949;stroke-width:3;stroke-miterlimit:10;}
	.st8{fill:none;stroke:#233949;stroke-width:3;stroke-linecap:round;stroke-miterlimit:10;}
	.st9{fill:none;stroke:#233949;stroke-width:3;stroke-miterlimit:10;}
	.st10{fill:none;stroke:#233949;stroke-width:3;stroke-linecap:round;stroke-linejoin:round;stroke-miterlimit:10;}
	.st11{fill:#50C1B3;stroke:#233949;stroke-width:3;stroke-miterlimit:10;}
	.st12{fill:#50C1B3;}
	.st13{opacity:0.47;fill:#724D3F;}
</style>
<g id="Layer_1">
</g>
<g id="Layer_2">
	<path class="st0" d="M376.02,633.97l127.78,28.4c0,0,5.68,4.46-1.62,7.3c-7.3,2.84-150.69,50.93-154.75,50.93   c-4.06,0-173.83-78.11-173.83-78.11l121.7-40.16L376.02,633.97z"></path>
	<polygon class="st1" points="458.54,675.16 344.26,712.56 265.42,666.79 268.21,637.07  "></polygon>
	<path class="st2" d="M798.72,339.73h206.49c13.31,0,24.1-10.79,24.1-24.1V185.32c0-13.31-10.79-24.1-24.1-24.1H798.72   c-13.31,0-24.1,10.79-24.1,24.1v130.32C774.62,328.94,785.41,339.73,798.72,339.73z"></path>
	<path class="st3" d="M203.5,483.23h487.28c27.34,0,49.5-22.16,49.5-49.5V135.1c0-27.34-22.16-49.5-49.5-49.5H203.5   c-27.34,0-49.5,22.16-49.5,49.5v298.64C154,461.07,176.16,483.23,203.5,483.23z"></path>
	<path class="st4" d="M391.74,543.67c0,0-9.85,9.23-16,9.85s-6.15,6.15-8,12.92c-1.85,6.77-7.38,19.69-9.23,22.15   c-1.85,2.46,1.85,12.92,1.85,15.39c0,2.46-58.46,21.54-58.46,21.54l-26.46-46.16c0,0,16.62,3.08,18.46,1.23   c1.85-1.85,0-4.92-0.62-11.08c-0.62-6.15-3.08-38.77,16-52.31c19.08-13.54,30.16-25.85,39.39-27.08   C357.89,488.9,391.74,543.67,391.74,543.67z"></path>
	<path class="st5" d="M628.05,243.35c0,0,17.23,1.85,24.62,9.23c7.38,7.38,12.31,10.46,21.54,12.31   c9.23,1.85,12.92,4.31,18.46,10.46c5.54,6.15,14.77,10.46,30.16,8.62c15.39-1.85,36.31,3.08,52.31,13.54   c16,10.46,30.77,23.39,35.69,44.92s14.15,40,11.69,52.93c-2.46,12.92-8,15.39-3.08,22.15s5.54,15.39,3.69,21.54   c-1.85,6.15-4.92,16.62-3.08,28.92c1.85,12.31-6.15,27.69-7.38,33.23c-1.23,5.54-3.08,16,1.85,21.54   c4.92,5.54,6.77,23.39,3.08,43.69c-3.69,20.31-8.62,25.23-12.31,26.46c-3.69,1.23-11.08,3.08-11.08,3.08l-154.47,22.77   l-176.01-29.07c0,0-9.85-55.86-12.31-65.09s0-20.92,0-27.69s-1.85-20.31-3.08-16c-1.23,4.31-4.31,12.31-9.23,13.54   c-4.92,1.23-9.23,1.85-11.69,3.69s-0.62,17.85-3.69,25.85c-3.08,8-25.85,22.77-25.85,22.77s-8,4.92-12.31,4.92   s-0.62-19.08-18.46-35.08c-17.85-16-34.46-18.46-34.46-18.46l-7.38,4.31c0,0-1.85-16.62,9.23-28.31   c11.08-11.69,16.62-9.85,16.62-9.85s14.15-6.77,19.69-17.23c5.54-10.46,20.92-25.85,23.39-28.92c2.46-3.08,10.46-24,19.69-32.62   s12.92-9.23,16.62-23.39c3.69-14.15,14.77-26.46,22.15-38.77c7.38-12.31,5.54-23.39,15.39-31.39c9.85-8,15.39-11.69,26.46-11.08   s33.23-3.69,48.62-8C558.51,268.59,628.05,243.35,628.05,243.35z"></path>
	<path class="st6" d="M603.64,447.26c0,0-6.97,30.77,5.95,65.64c11.92,32.16,16,71.39,16.62,74.46   c0.62,3.08-122.47,10.46-122.47,10.46l-13.54-2.46c0,0,17.77-65.72,29.54-80c18.26-22.15,28.92-68.11,26.05-85.75   c-2.22-13.65,29.95-9.64,29.95-9.64L603.64,447.26z"></path>
	<path class="st7" d="M498.06,183.12c-4.17-3.24-14.36-11.11-17.13-19.45s-5.09-19.45-5.56-28.25s-3.24-11.58-5.09-18.06   s5.09-15.28,4.63-25.01c-0.46-9.72-3.24-13.89-1.85-19.45s8.8-9.26,12.5-13.89s2.78-13.43,12.97-18.99   c10.19-5.56,19.45-4.17,23.62-0.93c4.17,3.24,13.89,10.65,20.84,5.09s9.72-11.11,20.84-17.6c11.11-6.48,14.82-0.93,23.62-7.87   s16.21-10.65,24.54-5.56s11.58,6.48,21.3,6.48s18.06-1.85,20.84,7.41c2.78,9.26-7.87,11.11,7.87,15.28s26.86,8.8,26.86,12.97   s-7.87,6.95-13.89,6.48c-6.02-0.46-12.04,4.17-6.95,5.09c5.09,0.93,7.41-0.93,16.21,5.56c8.8,6.48,18.06,11.58,16.67,18.06   s-6.48,8.34-0.46,12.04s16.21,10.19,15.28,15.28c-0.93,5.09,6.48,10.65,5.09,16.21c-1.39,5.56-3.7,6.95-6.95,6.48   c-3.24-0.46-6.48,1.39-3.7,6.48c2.78,5.09,6.48,7.41,12.5,15.75c6.02,8.34,8.8,17.6,4.17,21.3c-4.63,3.7-14.36,3.24-14.82,6.48   s4.63,8.34,0.46,13.89s-9.26,2.32-12.04,10.19c-2.78,7.87-0.46,12.5-6.48,13.89c-6.02,1.39-14.82-4.63-18.06,0.93   c-3.24,5.56-1.85,11.11-9.26,9.72s-12.5-1.85-21.77-1.39c-9.26,0.46-10.65,3.24-23.15-1.85S498.06,183.12,498.06,183.12z"></path>
	<path class="st4" d="M535.54,115.76c11.06-0.56,46.36-9.03,59.28-3.49s5.54,32.31,10.15,38.77c4.62,6.46,17.54,6.46,18.46,15.69   c0.92,9.23-2.77,23.08,3.69,27.69s17.54-9.23,23.08-18.46s24-5.54,24.92,0.92c0.92,6.46,0,26.77-5.54,35.08s-11.08,9.23-14.77,9.23   c-3.69,0-4.62-3.69-5.54,3.69c-0.92,7.38-2.77,18.46-2.77,22.15s3.69,14.77,1.85,24c-1.85,9.23-23.08,55.39-23.08,68.31   s-17.54,35.08-22.15,41.54c-4.62,6.46,3.69,14.77,3.69,26.77c0,12-3.05,43.55-5.23,51.9c-2.46,9.44-20.1,10.87-29.95,9.03   c-20.15-3.78-28.31-6.97-26.67-13.95c1.69-7.19,0.92-34.98,0-48.82s-6.46-31.39,0-41.54s8.31-12.92,11.08-26.77   c2.77-13.85,0.92-32.31,0.92-32.31s-11.08,0.92-16.62-1.85c-5.54-2.77-9.33-14.05-16.72-25.54c-7.38-11.49-12.72-16.41-13.95-19.28   c-1.23-2.87-6.97-14.36-10.26-17.64c-3.28-3.28-8.62-13.13-6.15-27.49c2.46-14.36,5.33-19.69,2.87-25.44s-4.1-17.64-2.46-32.82   c1.64-15.18,9.85-39.8,15.18-41.03C514.2,112.89,521.28,116.48,535.54,115.76z"></path>
	<path class="st4" d="M743.14,546.75c10.83,6.5,18.46,16.62,28.31,17.23c9.85,0.62,16.62,0.62,20.31,4.92   c3.69,4.31-2.46,46.77-9.23,58.46c-6.77,11.69-37.54,12.31-37.54,12.31l-219.09,9.85c0,0-49.23-4.31-53.54-0.62   s-30.16,11.08-35.08,10.46c-4.92-0.62-19.69-3.08-22.77-1.85c-3.08,1.23-16.32,15.66-19.69,19.08   c-15.39,15.59-23.18,12.31-25.23,11.08c-2.18-1.31-1.23-11.69,3.08-16.62s11.69-16.62,11.69-16.62l-16.62-3.69   c0,0-7.38,11.08-11.69,16s-9.23,11.69-13.54,16s-11.9,5.74-11.9,5.74l-9.23-6.15l-19.49-48c0,0,8.62-15.59,12.31-17.44   c3.69-1.85,9.23-1.23,11.69-4.92c2.46-3.69,5.54-8.62,12.31-8.62c6.77,0,9.85,1.85,15.39-1.23c5.54-3.08,8-6.77,22.15-5.54   c14.15,1.23,59.08,1.85,81.85,0.62s163.7-21.54,196.93-28.31c33.23-6.77,47.39-9.23,57.23-16.62S733.9,541.21,743.14,546.75z"></path>
	<path class="st0" d="M251.42,533.52c0,0,95.47,176.28,96.93,178.47c3.08,4.62,0.31,9.23-2.46,8.92   c-2.77-0.31-225.24-52.31-225.24-52.31s-7.69-1.85-12.31-9.85c-4.62-8-94.77-160.31-94.77-160.31s-5.23-9.23,4.62-8   c9.85,1.23,218.47,32.62,223.39,33.85C246.5,525.52,248.04,527.98,251.42,533.52z"></path>
	<g>
		<path class="st5" d="M705.68,555.96c0,0-2.1-11.2-1.05-15.4s2.1-21.34,2.1-21.34s-3.15-21.34,35.34-27.29    c0,0-0.09-39.6-0.09-56.72s-0.37-32-0.37-32s-8.93,52.09-8.93,66.98s-6.33,18.6-10.79,19.72s-20.47,7.07-23.44,16.74    c-2.98,9.67-5.21,32.74-5.21,41.67s2.6,11.16,2.6,11.16L705.68,555.96z"></path>
	</g>
	<path class="st8" d="M799.45,509.08"></path>
	<circle class="st9" cx="249.02" cy="340.53" r="14.19"></circle>
	<path class="st10" d="M316.92,290.79c-37.5-37.5-98.3-37.5-135.79,0"></path>
	<path class="st10" d="M364,243.72c-63.5-63.5-166.45-63.5-229.94,0"></path>
	<path class="st10" d="M414.97,192.74c-91.65-91.65-240.25-91.65-331.9,0"></path>
	<g>
		<path class="st11" d="M843.79,200.59h5.49c2.88-13.84,15.14-24.23,29.83-24.23c14.69,0,26.95,10.4,29.83,24.23h5.57    c18.97,0,34.35,15.38,34.35,34.35v1.53c0,18.97-15.38,34.35-34.35,34.35h-70.73c-18.97,0-34.35-15.38-34.35-34.35v-1.53    C809.45,215.97,824.82,200.59,843.79,200.59z"></path>
		
			<rect x="926.46" y="295.2" transform="matrix(-1 -4.489044e-11 4.489044e-11 -1 1877.2899 614.7744)" class="st11" width="24.37" height="24.37"></rect>
		
			<rect x="807.87" y="295.2" transform="matrix(-1 -4.485269e-11 4.485269e-11 -1 1640.1185 614.7744)" class="st11" width="24.37" height="24.37"></rect>
		<line class="st9" x1="926.46" y1="307.39" x2="832.48" y2="307.39"></line>
		<line class="st9" x1="879.82" y1="270.8" x2="879.82" y2="307.39"></line>
	</g>
	<line class="st8" x1="1016.73" y1="182.61" x2="968.52" y2="182.61"></line>
	<line class="st8" x1="1016.73" y1="196.36" x2="968.52" y2="196.36"></line>
	<line class="st8" x1="1016.73" y1="210.1" x2="968.52" y2="210.1"></line>
	<line class="st8" x1="1016.73" y1="223.84" x2="968.52" y2="223.84"></line>
	<line class="st8" x1="1016.73" y1="237.59" x2="968.52" y2="237.59"></line>
	<line class="st8" x1="1016.73" y1="251.33" x2="968.52" y2="251.33"></line>
	<line class="st8" x1="1016.73" y1="265.08" x2="968.52" y2="265.08"></line>
	<line class="st8" x1="1016.73" y1="278.82" x2="968.52" y2="278.82"></line>
	<line class="st8" x1="1016.73" y1="292.56" x2="968.52" y2="292.56"></line>
	<line class="st8" x1="1016.73" y1="306.31" x2="968.52" y2="306.31"></line>
	<line class="st8" x1="1016.73" y1="320.05" x2="968.52" y2="320.05"></line>
	
		<rect x="838.33" y="357.43" transform="matrix(-1 -4.488688e-11 4.488688e-11 -1 1738.5012 776.6967)" class="st12" width="61.84" height="61.84"></rect>
	
		<rect x="838.33" y="437.06" transform="matrix(-1 -4.488688e-11 4.488688e-11 -1 1738.5012 935.9526)" class="st12" width="61.84" height="61.84"></rect>
	<g>
		<path class="st13" d="M556.97,305.2c0,0,7.16,0.33,26.39-8.22c19.77-8.79,41.4-34.99,41.4-34.99s-25.86,58.61-38.13,80.93    S556.97,305.2,556.97,305.2z"></path>
	</g>
</g>
</svg>
